<svg width="286" height="295" viewBox="0 0 286 295" xmlns="http://www.w3.org/2000/svg"><path d="M87.694 12.267l2.31-1.033 2.35-.929c1.571-.604 3.122-1.261 4.707-1.82 3.187-1.072 6.353-2.214 9.62-3.07-3.472.877-6.85 2.086-10.267 3.2-3.346 1.303-6.737 2.522-10.004 4.053-3.325 1.4-6.514 3.105-9.737 4.743l-4.725 2.676c-1.592.868-3.08 1.908-4.626 2.855-12.25 7.778-23.317 17.526-32.784 28.66-4.694 5.603-9.035 11.518-12.892 17.747a158.508 158.508 0 0 0-10.088 19.509c-2.838 6.76-5.159 13.725-7.022 20.805-1.814 7.097-3.022 14.325-3.82 21.58-.714 7.269-.856 14.562-.594 21.826.413 7.26 1.237 14.48 2.616 21.59 1.46 7.09 3.325 14.076 5.73 20.858 2.466 6.755 5.322 13.343 8.66 19.652 13.363 25.26 33.91 45.917 57.6 59.446 1.436.929 3.334 1.905 5.39 3.046 2.04 1.173 4.36 2.263 6.672 3.386 2.288 1.173 4.684 2.105 6.846 3.049 2.154.969 4.193 1.64 5.797 2.255 3.215 1.203 6.59 2.078 9.974 3.095 3.436.801 6.895 1.752 10.47 2.337 1.783.303 3.562.722 5.38.928l5.468.725c1.834.217 3.688.32 5.544.484l2.791.216 2.809.084c7.502.33 15.135-.057 22.756-.951 1.902-.263 3.82-.43 5.715-.779 1.896-.338 3.796-.677 5.696-1.014 3.766-.84 7.558-1.633 11.26-2.762 7.44-2.11 14.732-4.777 21.672-8.069 6.942-3.274 13.638-6.964 19.857-11.184 6.215-4.217 12.048-8.796 17.404-13.664 5.3-4.926 10.176-10.065 14.537-15.355 8.682-10.65 14.327-21.359 17.6-29.203.882-1.936 1.496-3.76 2.08-5.327.557-1.58 1.087-2.907 1.404-4.035.653-2.237 1.013-3.464 1.013-3.464.258-.804.517-1.61.77-2.392.229-.786.409-1.562.588-2.282.35-1.44.62-2.68.753-3.52.266-1.68-.009-1.757-1.26 1.345-1.07 3.169-2.722 7.46-4.762 12.032-1.062 2.268-2.093 4.664-3.35 6.95l-1.808 3.45c-.613 1.136-1.291 2.22-1.917 3.301-5.08 8.628-10.34 15.116-10.631 14.881-.045-.034.202-.366.6-.972l1.693-2.475c.697-1.027 1.57-2.184 2.413-3.49l2.624-4.1c-.166-.102.333-1.255 1.073-3.093.736-1.839 1.935-4.233 2.98-6.927l1.702-4.058 1.527-4.035c1.045-2.554 1.777-4.895 2.392-6.403.564-1.536 1.632-5.055 2.92-9.55.536-2.28 1.235-4.777 1.778-7.437.494-2.673 1.147-5.436 1.487-8.257l.604-4.193c.154-1.392.265-2.775.395-4.12.108-1.348.285-2.656.323-3.93l.15-3.654c.135-2.316.093-4.386.06-6.075l-.079-3.8c-.142-4.863-.428-4.863-.785-1.724-.374 3.147-.838 9.304-2.049 16.762-1.171 7.453-3.334 16.112-6.142 24.187-2.785 8.091-6.29 15.548-9.2 21.073-2.992 5.497-3.314 5.306-2.745 3.847.48-1.514 1.638-4.401 1.382-4.527l-1.957 3.911c-.66 1.208-1.336 2.326-1.966 3.413-1.23 2.192-2.552 4.102-3.844 6.027-2.594 3.844-5.412 7.521-9.227 12.377-.01-.007-.113.095-.303.296l-.818.887c-.699.782-1.711 1.911-2.965 3.31l-4.618 4.726-2.854 2.677-1.508 1.422-1.624 1.39-3.363 2.875-3.6 2.798c-1.19.968-2.464 1.839-3.722 2.724-1.269.865-2.478 1.814-3.773 2.603l-3.777 2.404c-1.226.804-2.504 1.458-3.699 2.164-2.383 1.43-4.716 2.57-6.77 3.624 0 0-1.322.795-4.828 2.386-.874.397-1.866.894-3.028 1.386-1.171.471-2.488 1-3.96 1.594-1.46.625-3.131 1.169-4.963 1.796l-2.879.982-3.194.91-3.423.994c-.84.214-1.397.373-1.765.495-.734.242-.712.335-.691.427l-.087-.37c-2.951.927-7.508 1.818-12.097 2.424-4.59.643-9.216.893-12.297 1.168l-.017-.38c-12.303.869-24.687-.522-36.684-3.208.042-.185.042-.185.087-.37-3.017-.622-5.943-1.569-8.157-2.191-1.11-.302-1.998-.67-2.628-.899-.626-.24-.977-.396-.962-.44l.12-.363c-2.89-1.015-7.185-2.628-10.704-4.123l-4.441-2.01c-1.106-.568-1.758-.973-1.717-1.054l-.17.34c-1.365-.697-2.707-1.386-4.028-2.063-1.289-.741-2.556-1.473-3.807-2.192l-1.86-1.075-1.779-1.15-3.485-2.25c-4.461-3.142-8.61-6.24-12.319-9.562a132.044 132.044 0 0 1-19.155-20.75c-3.553-4.969-7.025-10.234-10.064-15.92-3.022-5.69-5.798-11.683-8.104-17.987a145.77 145.77 0 0 1-5.518-19.664c-1.347-6.78-2.136-13.746-2.468-20.784l-.147-5.295.12-5.31c-.006-1.775.206-3.539.311-5.31l.19-2.658c.082-.883.212-1.762.315-2.644.244-1.759.376-3.536.703-5.284l.913-5.254c.771-3.468 1.503-6.948 2.524-10.348 1.958-6.816 4.37-13.492 7.368-19.843a139.966 139.966 0 0 1 10.28-18.125c3.44-5.04 7.097-9.977 2.961-5.417 3.709-4.902 7.807-9.52 12.094-13.912 2.225-2.118 3.59-3.47 4.526-4.438a50.163 50.163 0 0 0 2.048-2.036c.535-.558 1.07-1.117 2.055-2.042.984-.925 2.51-2.105 4.924-4.025 9.802-7.506 20.62-13.735 32.148-18.227l2.152-.863c.725-.27 1.46-.506 2.19-.761l4.39-1.5c2.98-.827 5.922-1.797 8.954-2.43 6.005-1.504 12.146-2.406 18.303-3.034 24.691-2.38 49.968 2.352 72.109 13.441l4.131 2.12 4.023 2.319c1.357.746 2.653 1.594 3.953 2.435 1.29.856 2.633 1.632 3.88 2.55 5.116 3.494 9.92 7.417 14.541 11.536 4.538 4.215 8.83 8.688 12.806 13.436 3.893 4.81 7.605 9.78 10.837 15.063 3.203 5.29 6.227 10.71 8.663 16.402l.952 2.116.854 2.158c.555 1.445 1.168 2.867 1.682 4.325.987 2.933 2.05 5.841 2.836 8.837 3.495 11.884 5.094 24.276 5.273 36.675-.013-12.41-1.38-23.269-3.96-33.828-1.41-5.246-2.927-10.48-5.06-15.697-2.012-5.262-4.563-10.519-7.601-15.934.142-.078.55-.305-2.667-5.66-4.9-7.982-10.903-15.747-17.612-22.702a136.763 136.763 0 0 0-21.516-18.162c-14.87-10.176-29.71-15.635-38.616-18.517-2.977-.999-5.988-1.88-10.566-3.027l-3.776-.796c-.689-.138-1.407-.281-2.157-.433l-2.377-.347c-1.659-.212-3.455-.55-5.445-.702-1.99-.149-4.148-.377-6.512-.483 6.3.379 12.594.94 18.782 2.181l.105-.56c-12.416-2.463-26.82-3.252-41.02-1.699-7.11.688-14.127 2.141-20.838 3.906-6.727 1.74-13.078 4.092-18.913 6.6l-.23-.522c-3.898 1.702-7.696 3.626-11.415 5.688-1.464.65-1.797.677-1.197.19.606-.478 2.113-1.531 4.458-2.782 4.595-2.671 12.434-6.4 21.997-9.518 9.55-3.154 20.878-5.373 31.817-6.179 10.943-.849 21.454-.25 29.43.847l.104-.752-3.217-.409c-1.07-.145-2.143-.277-3.223-.339-2.156-.147-4.309-.365-6.467-.454l.017-.38c19.484.912 37.105 5.585 53.269 13.157 16.138 7.63 30.97 18.21 44.172 32.577l-4.068-4.267c-1.578-1.583-3.372-3.236-5.128-4.929-1.842-1.598-3.683-3.194-5.37-4.66l-4.634-3.64c.057-.075.117-.155-.483-.71-.62-.527-1.918-1.51-4.57-3.396 5.386 3.67 10.782 8.033 16.035 12.845 5.265 4.806 10.186 10.267 14.76 15.985 2.321 2.838 4.407 5.853 6.512 8.82l2.946 4.567c1.003 1.5 1.832 3.095 2.75 4.622 3.531 6.183 6.6 12.413 8.984 18.485 1.283 2.998 1.466 2.939.444-.172-.526-1.55-1.266-3.901-2.592-6.9-1.23-3.04-2.992-6.749-5.328-11.082-4.832-8.592-9.616-15.307-14.83-21.643-5.246-6.312-11.006-12.216-18.558-18.556l.244-.293c5.068 4.21 11.017 9.933 16.394 16.16 5.384 6.221 10.243 12.886 13.743 18.468 1.857 2.725.206-.122-1.46-2.982-.416-.715-.834-1.43-1.2-2.056l-.934-1.49c-.426-.713-.38-.749.618.572.98 1.34 1.814 2.775 2.73 4.157.9 1.39 1.81 2.777 2.619 4.224l2.527 4.285 2.367 4.38c-4.435-8.913-10.682-18.778-18.123-27.679-7.456-8.89-15.99-16.82-23.874-22.887-1.277-1.056-2.631-2.014-3.86-2.97-1.238-.941-2.381-1.842-3.412-2.542-2.032-1.444-3.359-2.464-3.26-2.625A159.225 159.225 0 0 0 201.4 12.177c-1.738-.699-3.453-1.39-5.144-2.069l-5.088-1.783c-1.66-.622-3.346-1.075-4.992-1.579-1.652-.476-3.258-1.03-4.887-1.398C168.364 1.97 156.663.502 146.584.029c-.839-.027-2.098-.034-3.7-.025-1.603.028-3.552-.022-5.755.172-4.41.257-9.872.77-15.677 1.818-1.45.263-2.927.53-4.42.802l-4.473 1.036-2.254.526-2.23.628a6552.7 6552.7 0 0 0-4.432 1.27c-1.46.45-2.884.966-4.298 1.438-1.406.491-2.812.92-4.135 1.478-2.659 1.077-5.238 2.002-7.516 3.095" fill="#FDC122" fill-rule="evenodd"/></svg>